<svg width="9" height="10" viewBox="0 0 9 10" fill="none" xmlns="http://www.w3.org/2000/svg">
<path d="M8.3514 1.84039C8.64429 1.5475 8.64429 1.07262 8.3514 0.779729C8.05851 0.486835 7.58363 0.486835 7.29074 0.779729L4.28554 3.78493L1.28034 0.779729C0.987446 0.486836 0.512572 0.486836 0.219679 0.779729C-0.073214 1.07262 -0.0732138 1.5475 0.219679 1.84039L3.22488 4.84559L0.21967 7.8508C-0.0732231 8.14369 -0.0732234 8.61856 0.21967 8.91146C0.512563 9.20435 0.987437 9.20435 1.28033 8.91146L4.28554 5.90625L7.29075 8.91146C7.58364 9.20435 8.05851 9.20435 8.35141 8.91146C8.6443 8.61856 8.6443 8.14369 8.35141 7.8508L5.3462 4.84559L8.3514 1.84039Z" fill="#9D9D9D"/>
</svg>
