<svg width="48" height="48" viewBox="0 0 48 48" fill="none" xmlns="http://www.w3.org/2000/svg">
<path fill-rule="evenodd" clip-rule="evenodd" d="M13.8855 6.44717C14.7072 6.44717 15.3733 7.11329 15.3733 7.93499V11.2431C20.9828 10.7436 26.6256 10.7436 32.2352 11.2432V7.93499C32.2352 7.11329 32.9013 6.44717 33.723 6.44717C34.5447 6.44717 35.2108 7.11329 35.2108 7.93499V11.5383C38.1726 11.9571 40.5125 14.2998 40.9086 17.288L41.0803 18.5833C41.8024 24.0314 41.7401 29.5548 40.8951 34.9851C40.4765 37.6752 38.2911 39.7414 35.5818 40.0085L33.2152 40.2419C26.9563 40.8591 20.652 40.8591 14.3932 40.2419L12.0265 40.0085C9.31726 39.7414 7.13184 37.6752 6.71325 34.9851C5.86826 29.5548 5.80588 24.0314 6.52804 18.5833L6.69974 17.288C7.09585 14.2998 9.43578 11.9571 12.3977 11.5383V7.93499C12.3977 7.11329 13.0638 6.44717 13.8855 6.44717ZM14.7686 14.2885C20.7777 13.696 26.8306 13.696 32.8398 14.2885L34.636 14.4657C36.3554 14.6352 37.7317 15.9663 37.9588 17.6791L38.1305 18.9743C38.1905 19.4269 38.2447 19.8799 38.2933 20.3334H9.31504C9.36361 19.8799 9.41788 19.4269 9.47786 18.9743L9.64956 17.6791C9.87659 15.9663 11.253 14.6352 12.9724 14.4657L14.7686 14.2885ZM9.07851 23.309C8.88375 27.0545 9.07563 30.814 9.65349 34.5276C9.86345 35.8769 10.9596 36.9133 12.3186 37.0473L14.6852 37.2807C20.7498 37.8787 26.8585 37.8787 32.9231 37.2807L35.2898 37.0473C36.6487 36.9133 37.7449 35.8769 37.9548 34.5276C38.5327 30.814 38.7246 27.0545 38.5298 23.309H9.07851Z" fill="#393939"/>
<circle cx="15.3745" cy="27.2766" r="1.48781" fill="#393939"/>
<circle cx="15.3745" cy="33.2278" r="1.48781" fill="#393939"/>
<circle cx="21.3257" cy="27.2766" r="1.48781" fill="#393939"/>
<circle cx="21.3257" cy="33.2278" r="1.48781" fill="#393939"/>
<circle cx="27.2769" cy="27.2766" r="1.48781" fill="#393939"/>
<circle cx="27.2769" cy="33.2278" r="1.48781" fill="#393939"/>
<circle cx="33.228" cy="27.2766" r="1.48781" fill="#393939"/>
</svg>
