<svg width="48" height="49" viewBox="0 0 48 49" fill="none" xmlns="http://www.w3.org/2000/svg">
<path d="M25.2929 14.4962C25.2929 13.6745 24.6268 13.0084 23.8051 13.0084C22.9834 13.0084 22.3173 13.6745 22.3173 14.4962V24.415C22.3173 24.928 22.5815 25.4048 23.0165 25.6766L28.9678 29.3962C29.6646 29.8317 30.5825 29.6198 31.018 28.923C31.4535 28.2262 31.2417 27.3083 30.5449 26.8728L25.2929 23.5904V14.4962Z" fill="#393939"/>
<path fill-rule="evenodd" clip-rule="evenodd" d="M23.8051 7.05716C14.2186 7.05716 6.44727 14.8285 6.44727 24.415C6.44727 34.0014 14.2186 41.7728 23.8051 41.7728C33.3915 41.7728 41.1629 34.0014 41.1629 24.415C41.1629 14.8285 33.3915 7.05716 23.8051 7.05716ZM9.42289 24.415C9.42289 16.4719 15.862 10.0328 23.8051 10.0328C31.7481 10.0328 38.1873 16.4719 38.1873 24.415C38.1873 32.358 31.7481 38.7972 23.8051 38.7972C15.862 38.7972 9.42289 32.358 9.42289 24.415Z" fill="#393939"/>
</svg>
