<svg width="48" height="49" viewBox="0 0 48 49" fill="none" xmlns="http://www.w3.org/2000/svg">
<path fill-rule="evenodd" clip-rule="evenodd" d="M14.3824 20.6425C14.3824 15.4384 18.6011 11.2197 23.8052 11.2197C29.0093 11.2197 33.228 15.4384 33.228 20.6425C33.228 25.8466 29.0093 30.0653 23.8052 30.0653C18.6011 30.0653 14.3824 25.8466 14.3824 20.6425ZM23.8052 14.1953C20.2445 14.1953 17.358 17.0818 17.358 20.6425C17.358 24.2032 20.2445 27.0897 23.8052 27.0897C27.3659 27.0897 30.2524 24.2032 30.2524 20.6425C30.2524 17.0818 27.3659 14.1953 23.8052 14.1953Z" fill="#393939"/>
<path fill-rule="evenodd" clip-rule="evenodd" d="M6.99164 18.3748C7.69454 9.84739 14.8205 3.28467 23.3768 3.28467H24.2336C32.7899 3.28467 39.9158 9.84739 40.6187 18.3748C40.9963 22.9555 39.5814 27.5041 36.6719 31.0623L27.1636 42.6906C25.4279 44.8134 22.1825 44.8134 20.4467 42.6906L10.9385 31.0623C8.02903 27.5041 6.61406 22.9555 6.99164 18.3748ZM23.3768 6.26029C16.3691 6.26029 10.5329 11.6352 9.95721 18.6192C9.64296 22.4317 10.8206 26.2173 13.2421 29.1787L22.7503 40.807C23.2955 41.4738 24.3149 41.4738 24.8601 40.807L34.3683 29.1787C36.7898 26.2173 37.9674 22.4317 37.6532 18.6192C37.0775 11.6352 31.2413 6.26029 24.2336 6.26029H23.3768Z" fill="#393939"/>
</svg>
